# xmcd CD database file
#
# Track frame offsets:
#	150
#	23789
#	41277
#	58596
#	72746
#	83992
#	113532
#	126714
#	144497
#	157783
#	181891
#	198395
#	212153
#	225546
#	243419
#	270706
#	294500
#	330340
#	344742
#
# Disc length: 4739 seconds
#
# Revision: 0
# Processed by: cddbd v1.5.2PL0 Copyright (c) Steve Scherf et al.
# Submitted via: CDex 1.70beta2
#
DISCID=1a128113
DTITLE=Sueddeutsche Zeitung - Jazz - Saxophones
DYEAR=2011
DGENRE=Jazz
TTITLE0=Cannonball Adderley: Waltz For Debby 
TTITLE1=Benny Carter And His Orchestra: Honeysuckle Rose
TTITLE2=The Four Brothers: Four Brothers 
TTITLE3=Gerry Mulligan Quartet with Chet Baker: I'm Beginning To See The Light 
TTITLE4=Stan Getz: Little Rio (Un Poco Rio)
TTITLE5=Dexter Gordon: Cheese Cake 
TTITLE6=Illinois Jacquet: Riffin' With Jacquet
TTITLE7=Ben Webster: Sunday
TTITLE8=Lester Young: Lester Leaps In
TTITLE9=Michael Brecker: Madame Toulouse 
TTITLE10=Roland Kirk: Lament
TTITLE11=Coleman Hawkins: Body and Soul
TTITLE12=Charlie Parker: Ornithology
TTITLE13=Sonny Rollins: St. Thomas
TTITLE14=John Coltrane: Trane´s Slow Blues 
TTITLE15=Branford Marsalis Quartet: Jabberwocky
TTITLE16=Wayne Shorter: Footprints
TTITLE17=Ornette Coleman: Tomorrow Is The Question
TTITLE18=Chris Potter: What's New - For The Current Generation
EXTD=YEAR: 2011
EXTT0=
EXTT1=
EXTT2=
EXTT3=
EXTT4=
EXTT5=
EXTT6=
EXTT7=
EXTT8=
EXTT9=
EXTT10=
EXTT11=
EXTT12=
EXTT13=
EXTT14=
EXTT15=
EXTT16=
EXTT17=
EXTT18=
PLAYORDER=
